<svg width="39" height="19" viewBox="0 0 39 19" fill="none" xmlns="http://www.w3.org/2000/svg">
<g id="Group">
<g id="Group_2">
<path id="Vector" d="M34.6836 13.0023C34.246 12.6378 34.1432 12.1315 34.0671 11.6324C33.854 10.6162 33.58 9.5767 32.9769 8.67003C31.8751 7.13319 29.8963 6.38093 28.003 5.82975C24.1937 4.75611 20.0932 5.07749 16.1964 5.56403C12.9997 6.1601 9.74028 7.28759 7.57303 9.54438C7.19629 9.94116 6.85759 10.3595 6.53222 10.7904C5.87957 11.4995 5.06329 13.6989 3.77321 13.2446C2.97025 12.5606 3.63621 11.4547 3.84932 10.6593C4.63897 8.22657 6.29438 5.99313 8.57579 4.44551C11.6963 2.34493 15.557 1.21923 19.4425 0.95351C22.036 0.687795 24.6675 0.599821 27.2362 1.06303C31.662 1.79375 36.4132 3.96076 37.3798 8.17271C37.6538 9.42229 38.1067 10.846 37.593 12.0848C37.1667 13.0687 35.675 13.8533 34.6589 13.013L34.6836 13.0023Z" fill="#FF61EF"/>
</g>
<g id="Group_3">
<path id="Vector_2" d="M30.9238 13.4009C25.773 13.2016 20.6203 12.9808 15.4695 12.9036C12.4346 12.9036 9.4149 13.1693 6.3819 13.3022C5.01571 13.435 3.36031 11.9969 4.57617 10.9359C4.86539 10.715 5.2155 10.5373 5.54087 10.3506C6.50748 9.86222 7.12017 9.03455 7.87367 8.33795C9.46438 7.00039 11.2454 5.76159 13.2756 4.99855C15.9452 3.99314 18.904 3.8926 21.7619 3.79385C23.1909 3.75974 24.6446 3.83694 26.047 4.05957C28.9182 4.45635 31.487 5.76159 33.6428 7.44206C34.3449 7.99503 35.1232 8.50312 35.6122 9.22127C35.5608 7.80652 35.1098 6.39176 33.9815 5.35224C33.7817 5.16373 33.5058 4.96623 33.4183 4.72206C33.3555 4.56766 33.443 4.38992 33.6314 4.34683C34.2821 4.2032 34.8967 4.65563 35.3477 5.00932C37.3913 6.66825 39.0828 9.86222 37.9678 12.2626C37.0031 13.9431 32.779 13.3237 30.9104 13.3901L30.9238 13.4009ZM25.3962 10.3165C26.6616 10.4044 27.9288 10.5373 29.1941 10.6378C29.8829 10.6917 30.5851 10.7366 31.2739 10.7922C28.7927 8.55878 26.7129 7.5408 23.1148 7.53003C18.4511 7.56414 15.8957 7.72932 11.9589 10.1279C16.4342 9.95199 20.9342 10.0507 25.3962 10.3165Z" fill="#FF60EB"/>
</g>
<g id="Group_4">
<path id="Vector_3" d="M34.1699 11.8642C35.0356 14.7727 33.1671 18.929 29.1694 18.4424C27.7899 18.1767 26.9127 17.1157 26.1364 16.1641C25.4343 17.0169 24.6694 17.9451 23.4649 18.2539C21.8362 18.5861 20.2702 17.6794 19.6309 16.3975C17.4864 18.9613 13.8522 18.7961 13.4393 15.3023C10.2788 16.6399 6.55697 18.9739 2.9341 17.8338C0.21505 16.4855 1.40618 13.8427 3.57343 12.5716C5.00241 11.6541 6.59502 10.9467 8.12294 10.1514C8.58722 9.8408 9.05149 9.53199 9.51576 9.22139C10.2788 8.56967 11.057 7.9395 11.9475 7.40806C15.2678 5.33081 19.53 4.47801 23.5544 4.99867C26.0108 5.38468 28.492 6.02742 30.6231 7.198C32.4536 8.2483 33.6695 9.9952 34.1832 11.8426L34.1699 11.8642Z" fill="#FFD2B6"/>
</g>
<g id="Group_5">
<path id="Vector_4" d="M4.07575 18.5732C-0.601243 17.9323 -0.336759 14.3397 2.60872 11.8962C3.24805 11.3648 3.97491 10.9447 4.70176 10.5138C6.23159 9.6179 7.71003 8.65558 9.31407 7.871C11.9094 6.46702 14.4401 4.765 17.4236 4.07917C18.6643 3.89066 20.1446 3.69137 21.3357 4.07917C21.7734 4.3 21.9998 4.7668 21.7601 5.18692C21.4347 5.76144 20.6831 5.85839 20.0304 5.94636C18.8907 6.1241 17.749 6.36827 16.6721 6.78839C15.1556 7.44011 13.7646 8.29112 12.2976 9.03261C9.97813 10.2822 7.33329 11.6072 5.1413 12.9016C4.4506 13.2894 3.74848 13.7096 3.24805 14.2949C3.073 14.5713 2.68293 15.0022 2.92268 15.3003C3.77321 16.1854 5.25356 16.1423 6.45611 16.0435C8.19905 15.8227 9.77834 15.1351 11.3691 14.5265C12.2729 14.074 13.4259 14.4959 12.9997 15.5013C12.7486 16.2087 11.9094 16.4942 11.2321 16.8048C9.05148 17.8659 6.63117 18.8713 4.08717 18.584L4.07575 18.5732Z" fill="#004448"/>
</g>
<g id="Group_6">
<path id="Vector_5" d="M18.6909 16.4851C18.1885 15.9537 18.2989 15.2032 18.5748 14.6054C18.826 14.0093 18.9763 13.345 19.4158 12.8262C19.7907 12.3612 20.5708 12.4384 20.7325 13.0129C20.8334 13.345 20.8467 13.6879 20.8467 14.0201C20.8467 14.6503 20.9837 15.2804 20.6583 15.8657C20.3824 16.5175 19.3302 17.1369 18.6909 16.4851Z" fill="#004448"/>
</g>
<g id="Group_7">
<path id="Vector_6" d="M24.5438 15.4007C24.3802 14.4617 24.9453 13.0577 25.8852 12.5479C27.1258 12.0505 27.2267 13.4671 27.1639 14.2086C27.339 15.6449 25.1945 17.6898 24.5438 15.4007Z" fill="#004448"/>
</g>
<g id="Group_8">
<path id="Vector_7" d="M31.7267 15.9433C31.1236 15.4891 31.1236 14.7296 31.3119 14.1102C31.4623 13.3795 32.1263 12.0635 33.1671 12.5931C33.7817 13.1246 33.8445 14.2862 33.6067 14.9828C33.3936 15.6363 32.5031 16.4855 31.7267 15.9433Z" fill="#004448"/>
</g>
</g>
</svg>
