<svg width="187" height="114" viewBox="0 0 187 114" fill="none" xmlns="http://www.w3.org/2000/svg">
<mask id="mask0_1_1622" style="mask-type:luminance" maskUnits="userSpaceOnUse" x="9" y="32" width="118" height="60">
<path d="M9.12225 32.3721H126.104V91.5861H9.12225V32.3721Z" fill="white"/>
</mask>
<g mask="url(#mask0_1_1622)">
<path d="M123.856 52.1733C123.555 52.982 123.429 53.8249 123.266 54.6565C123.104 55.2425 122.99 55.84 122.902 56.4489C122.828 58.4068 122.451 60.3495 121.737 62.2123C120.972 64.4043 119.718 66.3489 118.564 68.3164C117.662 69.7815 116.796 71.0354 117.323 72.7936C118.777 77.6913 119.796 80.1858 117.437 85.1539C117.375 85.2719 117.312 85.4013 117.249 85.5421C117.224 85.6581 117.16 85.7875 117.072 85.9283C117.047 85.9626 117.024 85.9987 117.011 86.033C116.836 86.385 116.636 86.7713 116.41 87.1461C115.997 87.9662 115.568 88.7635 114.74 89.2677C113.724 89.9356 112.473 90.24 111.257 90.3104C109.902 90.4512 108.585 90.5673 107.232 90.6263C105.764 90.7081 104.297 90.7214 102.829 90.7214C100.861 90.7671 98.891 90.7785 96.9362 90.8032H96.9115C95.6439 90.8375 94.3781 90.885 93.1238 90.885C87.1681 91.0601 81.201 91.2237 75.234 91.1305C71.0713 90.9897 67.3692 90.8375 63.3074 90.7081C59.0819 90.6263 54.8469 90.6852 50.6215 90.6148C48.8646 90.5673 47.2963 90.5559 45.5775 90.5806H44.051C41.9573 92.4891 23.3499 91.2009 24.6537 90.6148C23.0359 90.7442 21.2924 90.7556 19.7887 90.7556C18.8351 90.7785 17.006 90.7899 16.4026 90.0174C16.1647 89.6539 16.0391 89.2315 16.0904 88.811C16.277 87.5913 17.4304 86.8302 18.2565 85.9873C19.1092 85.1082 19.8877 84.1949 20.7023 83.2797C21.4542 82.4139 22.6952 81.1353 22.8836 79.8947C22.2193 78.8044 21.3038 77.9139 19.8744 77.6684C18.0433 77.3983 16.1399 77.3507 14.385 76.7418C12.0781 76.0854 9.12981 74.3976 9.90639 71.7623C10.1824 70.5312 11.1093 69.5589 11.549 68.3868C11.9259 67.0872 11.7641 65.7058 11.9144 64.3815C12.3161 60.9013 13.6922 56.9169 17.242 55.252C17.3048 53.8934 17.8187 52.0059 17.9443 51.4788C18.4697 49.8862 18.9969 47.6372 21.0906 47.346C23.3099 47.2756 23.6868 50.5084 24.3378 51.926C24.6385 52.6776 24.9526 53.4273 25.3656 54.1408C26.0432 53.1457 26.7703 52.1714 27.5354 51.2334C28.6394 49.8748 29.4293 48.737 30.8207 47.8122C32.7393 46.4993 34.4447 48.1985 34.5189 50.0385C34.7073 52.0421 34.1953 54.0476 34.3457 56.0626C34.4827 58.3821 36.0511 60.3857 37.7318 61.9802C40.5907 64.37 44.4869 64.0884 47.9225 63.1637C49.9914 62.5891 51.8225 61.4759 53.6288 60.399C54.6185 59.8015 55.5721 59.166 56.4743 58.4753C59.7462 55.8856 62.5956 52.8983 65.5782 50.027C68.1744 47.66 70.683 45.1997 73.3154 42.8669C77.716 39.1413 83.8467 35.2997 89.7396 34.2798C95.2194 33.2142 101.274 32.6643 106.691 34.2455C110.589 35.5109 114.164 37.7028 116.946 40.5494C118.941 41.6739 123.568 42.7223 125.356 44.2198C127.411 45.9418 124.659 50.6854 123.856 52.1733Z" fill="#FFA97E"/>
<path d="M76.9516 56.2708C76.0361 56.071 75.6973 55.0664 75.0958 54.4803C73.2038 52.511 71.4718 50.3894 70.3317 47.9405C69.9929 47.1547 69.6426 46.2071 70.069 45.3985C70.4687 44.6031 71.447 44.5194 72.0618 45.1511C74.0547 47.2365 75.2709 49.8623 76.7898 52.2522C77.3037 53.2835 78.4438 54.2691 78.0803 55.4869C77.9547 55.9455 77.4655 56.3526 76.9402 56.2708H76.9516Z" fill="#FFD2B6"/>
<path d="M82.6069 51.9005C81.1032 49.8036 79.4473 47.7753 78.2196 45.5148C77.7419 44.6833 77.3288 43.8042 76.952 42.9252C76.6512 42.1869 76.2496 41.3668 76.5009 40.5695C76.8263 39.5154 77.9798 39.7152 78.507 40.5125C78.8458 40.9577 79.1466 41.4258 79.472 41.8824C81.3906 44.5882 82.7573 47.6002 84.2495 50.5172C84.613 51.4667 83.6595 52.7434 82.6202 51.9005H82.6069Z" fill="#FFD2B6"/>
<path d="M89.3753 48.4218C89.025 48.3038 88.8119 48.0241 88.6748 47.7063C88.4103 47.2383 88.1324 46.7816 87.8811 46.3135C86.2766 43.7581 84.8224 41.1247 83.8441 38.301C83.6442 37.7149 83.471 37.0927 83.6594 36.4839C84.0839 35.3593 85.2392 35.6847 85.7893 36.5295C87.5575 38.7786 88.336 41.509 89.3124 44.0987C89.6513 44.953 90.0529 45.9843 90.3422 46.7816C90.7057 47.4381 90.3155 48.6672 89.3505 48.4218H89.3753Z" fill="#FFD2B6"/>
<path d="M95.7333 46.1359C94.7816 45.8086 94.8311 44.6479 94.4676 43.8982C93.4778 40.9927 92.2349 37.9216 92.3605 34.8411C92.4367 34.1028 93.1618 33.3055 93.9632 33.844C94.8787 34.548 95.0557 35.7544 95.4059 36.7495C95.72 37.817 96.0207 38.8711 96.2339 39.9614C96.4851 41.2496 96.685 42.5511 96.9096 43.8392C96.961 44.1551 97.0619 44.4728 97.0733 44.8001C97.1494 45.4908 96.5727 46.3699 95.7447 46.1359H95.7333Z" fill="#FFD2B6"/>
<path d="M32.4903 70.8121C31.0742 70.3897 31.9745 68.8428 32.4256 68.0227C33.2288 66.3483 34.2433 64.7899 35.3472 63.2772C35.9373 62.5047 36.5007 61.6732 37.3153 61.0871C37.7169 60.8055 38.3812 60.8645 38.5563 61.3554C38.8209 62.3296 38.1452 63.2905 37.8064 64.181C37.0298 65.8916 36.0267 67.5204 34.8352 69.0083C34.1824 69.699 33.6551 70.9168 32.5017 70.8121H32.4903Z" fill="#FFD2B6"/>
<path d="M37.0295 72.5568C36.7287 71.8071 37.2788 70.9414 37.492 70.2621C37.945 68.9492 38.5465 67.7086 39.2602 66.5003C39.8503 65.5642 41.7308 61.6026 43.1736 63.1857C43.9996 64.4396 41.2302 68.6314 40.5526 70.0147C39.9512 70.9395 39.4372 71.9384 38.6721 72.7585C38.2077 73.1923 37.2788 73.2152 37.0295 72.5473V72.5568Z" fill="#FFD2B6"/>
<path d="M106.303 82.2383C106.68 81.7455 107.432 81.7569 108.009 81.6523C109.438 81.4753 114.478 81.2527 115.571 81.2184C116.397 81.089 117.862 81.3592 117.586 82.4134C117.211 83.1859 116.134 82.9994 115.394 83.1288C113.275 83.3039 105.852 83.5969 106.303 82.2383Z" fill="#FFD2B6"/>
<path d="M107.934 77.4925C107.533 77.4335 107.068 77.3631 106.806 77.0473C106.341 76.4136 107.257 76.0978 107.795 76.0635C110.192 75.6297 112.611 75.7096 115.03 75.6735C116.197 75.7572 118.228 75.1026 118.706 76.5088C118.805 77.4335 117.588 77.5724 116.861 77.5496C115.257 77.62 109.288 77.7151 107.934 77.4925Z" fill="#FFD2B6"/>
<path d="M107.295 70.8476C106.492 70.3205 107.093 69.6774 107.859 69.5594C110.329 69.0914 112.874 69.2322 115.383 69.0799C116.047 69.0799 116.862 68.9848 117.351 69.5119C117.638 69.7821 117.764 70.2387 117.526 70.5679C117.113 71.1654 116.31 71.0702 115.645 71.0835C113.765 71.1654 108.123 71.211 107.295 70.8476Z" fill="#FFD2B6"/>
<path d="M28.9915 86.5016C28.0018 85.9859 27.2119 85.1449 26.422 84.3952C25.2933 83.2821 24.2255 82.1081 23.2966 80.8427C22.3697 79.4252 21.281 78.5823 19.488 78.3254C17.2553 77.9848 15.0093 77.8554 12.9537 76.9307C11.273 76.2856 9.36775 75.2068 9.15457 73.3554C9.06701 72.7579 9.65706 71.797 10.3975 72.2175C10.6487 72.3831 10.7458 72.6628 10.86 72.9215C11.2235 73.5533 11.9011 73.9776 12.5293 74.3638C13.8083 75.0317 15.1978 75.5131 16.6272 75.7814C18.0319 76.122 19.5108 76.1905 20.8774 76.6357C22.7827 77.1856 24.1018 78.8753 25.28 80.152C25.9328 80.8199 26.4696 81.3812 27.0958 82.0263C27.7981 82.7398 28.3882 83.4077 29.14 84.0755C29.4407 84.38 29.8423 84.6045 30.0174 84.9927C30.3448 85.6358 29.8823 86.6918 29.0049 86.492L28.9915 86.5016Z" fill="#004448"/>
<path d="M9.97073 74.7148C9.5063 74.4694 9.35594 73.9766 9.20557 73.5427C8.95433 72.8159 9.29313 72.0319 9.89459 71.5505C10.359 71.2004 10.8729 70.4488 11.5505 70.837C12.4527 71.5639 12.3652 72.9567 11.8513 73.8719C11.5505 74.633 10.6845 74.5626 10.4713 73.8015C10.3095 73.3429 10.6978 73.0043 10.8862 72.6294C10.5969 72.8634 10.0963 73.0747 10.2848 73.4952C10.3476 73.8015 10.5341 74.0698 10.5969 74.3742C10.6978 74.7624 10.2962 74.9964 9.98215 74.7148H9.97073Z" fill="#004448"/>
<path d="M10.5969 72.9101C10.4599 72.6285 10.5608 72.0196 10.9985 72.1243C11.8513 72.442 11.1622 73.9757 10.5969 72.9101Z" fill="#004448"/>
<path d="M44.9277 65.2337C42.9463 65.3041 41.0505 64.6591 39.3089 63.8504C36.3492 62.5622 34.343 59.8223 33.5284 56.9168C32.9517 55.0654 33.0392 53.1074 33.2638 51.2085C33.3019 50.5406 33.4028 48.9594 32.3864 48.9708C30.9455 49.3685 29.8796 50.4835 28.8766 51.4672C27.7859 52.5918 26.8723 53.8438 25.8445 55.0045C25.3801 55.5315 24.8757 56.1062 24.1752 56.3288C23.8478 56.4335 23.509 56.3764 23.1969 56.2946C22.4317 56.1404 21.6666 56.0472 20.89 56.0358C19.7613 56.1176 18.5945 56.1785 17.5667 56.6694C16.6398 57.1146 15.749 57.6664 15.0466 58.3933C14.5441 58.8728 14.2967 59.495 13.9065 60.0449C13.1433 60.9582 12.3648 60.4083 12.6027 59.3542C13.3051 56.6237 15.7242 54.3252 18.5945 53.5279C20.4008 53.0827 22.2833 53.2007 24.0629 53.6916C26.1205 51.5243 27.5727 48.8072 30.1804 47.1309C31.5603 46.1224 33.8672 45.5363 34.9959 47.1651C36.136 48.7006 35.8105 50.6472 35.7344 52.3939C35.6716 55.7808 37.3028 59.3884 40.5499 61.099C43.2832 62.6821 46.8444 63.4413 49.8022 61.9172C50.7939 61.4491 51.7837 60.9811 52.7239 60.4407C53.2512 60.1838 53.7156 59.67 54.3551 59.7861C55.1945 59.9973 55.0441 61.1238 54.5055 61.569C52.8495 62.7639 51.0071 63.7229 49.1132 64.543C47.7961 65.0701 46.3667 65.268 44.9372 65.2223L44.9277 65.2337Z" fill="#004448"/>
<path d="M75.5728 90.4748C75.3463 89.4911 75.9992 88.5416 76.4997 87.7215C77.4019 86.3858 78.7667 85.3317 80.3217 84.7209C81.5266 84.2642 82.7942 83.9598 84.0847 83.8075C85.9919 83.7619 87.998 83.5963 89.7149 82.7762C90.2288 82.4832 89.6502 81.8972 89.437 81.5699C88.3597 80.3978 86.7685 79.7889 85.5275 78.7938C84.2103 77.7853 82.8323 76.461 81.8787 75.2185C80.9137 74.1187 80.061 72.8876 79.5585 71.5404C79.0826 69.8755 79.0693 68.106 79.1454 66.3954C79.5223 62.1789 81.5285 58.967 84.4616 55.8274C86.9321 53.038 90.4781 51.316 94.0641 50.0735C95.8571 49.5008 97.6653 48.8557 99.5572 48.6445C100.587 48.5855 103.383 47.9538 103.621 49.242C103.632 50.0849 102.603 50.2504 101.9 50.3913C101.036 50.6253 100.185 50.9297 99.2946 51.1295C96.7745 51.7251 94.3667 52.6746 92.0103 53.683C88.6623 55.0892 86.5439 56.7522 84.4235 59.5416C82.1166 62.2949 81.2011 65.8455 81.616 69.3009C81.8292 71.529 83.5213 73.2967 84.8498 75.0434C85.5769 75.8407 86.3535 76.6018 87.1815 77.3039C88.234 78.1716 89.4522 78.8394 90.4058 79.8003C91.7458 81.1018 92.0846 83.0807 90.4058 84.2756C89.2885 84.9682 88.0095 85.4249 86.7304 85.7997C84.8498 86.1974 82.8818 86.1974 81.0393 86.7949C79.547 87.2173 78.3156 88.26 77.7141 89.5957C77.5142 90.1818 77.2516 90.8497 76.5378 91.0133C76.0981 91.1199 75.6718 90.8382 75.5462 90.4406L75.5728 90.4748Z" fill="#004448"/>
<path d="M23.0986 53.3892C22.8474 52.1239 22.6076 50.8586 22.244 49.6047C22.107 49.1822 21.8424 48.7142 21.3533 48.5734C21.1534 48.5734 20.9554 48.503 20.7918 48.4326C20.1142 48.1985 20.1655 47.3423 20.6281 46.9332C21.3932 46.2177 22.5962 46.7924 23.1976 47.4241C24.1131 48.3736 24.3891 49.6636 24.7146 50.87C24.865 51.7833 25.4189 52.7442 25.1048 53.6709C24.6784 54.8068 23.3118 54.4681 23.0986 53.3892Z" fill="#004448"/>
<path d="M63.1598 51.772C63.1217 51.4676 63.2606 51.1859 63.4852 50.9633C63.8754 50.5067 64.298 50.0728 64.7129 49.639C65.8283 48.4802 67.0331 47.3309 68.1485 46.1836C75.4841 38.7305 85.5777 33.3285 96.4993 32.5313C98.7567 32.322 101.05 32.2516 103.27 32.7425C106.305 33.4237 109.237 34.4664 112.057 35.6956C115.356 37.3947 122.846 40.2336 121.173 41.9937C116.469 40.7093 104.773 35.9068 102.327 35.2979C99.8321 34.689 97.213 34.8641 94.6663 35.0049C92.0339 35.1913 89.4777 35.8135 87.0071 36.6679C85.2408 37.2653 83.5354 38.0169 81.83 38.7419C79.0834 40.0548 76.5766 41.7654 74.2184 43.6053C71.2605 45.9495 68.7138 48.7143 65.9806 51.2678C65.4552 51.7492 65.0003 52.4284 64.1857 52.4284C63.7479 52.4399 63.2092 52.2172 63.1731 51.7606L63.1598 51.772Z" fill="#004448"/>
<path d="M113.164 89.9105C113.038 89.1837 113.714 88.6224 114.001 88.0002C114.816 86.653 115.533 85.1879 116.034 83.8521C117.1 81.1578 117.775 78.2866 117.349 75.4172C117.062 74.0681 116.647 72.7324 116.485 71.351C116.07 68.925 117.048 67.0736 118.465 65.1176C119.82 63.1139 121 60.981 121.514 58.6368C122.342 55.3088 121.913 51.9752 124.034 49.0697C124.494 48.3752 126.261 48.7709 125.983 49.4578C125.242 51.45 124.308 55.4972 123.92 57.5712C123.33 60.8516 121.727 63.8541 119.833 66.6303C118.493 68.4227 118.305 69.3112 118.756 71.4557C119.833 75.8035 119.57 80.2198 117.739 84.3678C117.1 85.9966 116.222 87.5321 115.271 89.02C114.907 89.5357 114.667 90.2854 113.94 90.4262C113.577 90.4738 113.225 90.2625 113.148 89.9105H113.164Z" fill="#004448"/>
</g>
<path d="M16.0089 69.9498C12.6865 70.4864 12.6499 65.664 15.2063 64.6078C18.8372 63.2462 19.3761 69.5351 16.0089 69.9498Z" fill="#FFD2B6"/>
<path d="M15.1831 67.9643C14.4534 67.4328 15.2478 65.9063 16.1213 66.4954C16.8511 67.0269 16.0566 68.5535 15.1831 67.9643Z" fill="#004448"/>
<path d="M16.3978 72.0831C16.2595 71.9656 16.2039 71.784 16.251 71.6254C16.5403 70.8027 18.0047 70.9874 18.6878 70.8308C20.7789 70.4772 22.8889 70.1998 25.0168 70.059C27.2955 69.9238 29.5854 69.3524 31.8878 69.552C33.0185 70.0047 31.966 70.9758 31.2087 71.022C27.9662 71.3524 24.794 72.0121 21.4979 72.0714C19.9248 72.2393 18.3472 72.3272 16.7583 72.2017C16.6347 72.1963 16.4969 72.1674 16.3978 72.0831Z" fill="#004448"/>
<path d="M17.0683 74.4313C16.7461 74.1771 16.8367 73.7152 17.1662 73.5461C17.918 73.2115 18.8403 73.6064 19.6606 73.6277C20.8435 73.8211 22.0362 73.9667 23.2273 74.1115C24.2018 74.3101 25.351 74.2797 26.2419 74.7103C26.912 75.2307 26.2787 76.0475 25.6193 76.127C24.1245 76.1234 22.5999 75.7444 21.1165 75.515C19.9633 75.2851 18.8248 74.9969 17.6864 74.7086C17.4789 74.6491 17.2434 74.5912 17.0755 74.4473L17.0683 74.4313Z" fill="#004448"/>
<path d="M10.2954 74.8025C7.9585 75.9094 5.46523 76.5796 3.01929 77.3128C2.44942 77.4711 1.78981 77.736 1.24241 77.4394C0.695147 77.1778 1.15953 76.5261 1.53397 76.2812C2.36361 75.7963 3.59742 75.4498 4.40337 75.1023C5.9632 74.5137 7.56234 73.999 9.16862 73.5959C9.74538 73.4793 10.4492 73.1537 10.9698 73.4773C11.5474 73.9433 10.7804 74.6136 10.2954 74.8025Z" fill="#004448"/>
<path d="M11.1964 77.2878C10.3739 77.8843 9.48636 78.3465 8.59067 78.7979C7.79154 79.171 6.53149 80.041 5.91033 79.1056C5.64803 78.4217 6.41569 77.9129 6.97171 77.6524C8.26757 76.9949 9.56578 76.2513 10.9405 75.798C11.3639 75.7062 11.8476 75.8671 11.9018 76.3284C11.9317 76.7467 11.5198 77.0618 11.2045 77.2958L11.1964 77.2878Z" fill="#004448"/>
<mask id="mask1_1_1622" style="mask-type:luminance" maskUnits="userSpaceOnUse" x="1" y="76" width="51" height="23">
<path d="M1.14462 77.4985L50.8185 76.2482L51.3518 97.4353L1.67792 98.6856L1.14462 77.4985Z" fill="white"/>
</mask>
<g mask="url(#mask1_1_1622)">
<mask id="mask2_1_1622" style="mask-type:luminance" maskUnits="userSpaceOnUse" x="5" y="82" width="43" height="11">
<path d="M20.941 83.0575C20.0861 83.1198 19.2324 83.1197 18.4499 83.1796C15.2892 83.4216 11.908 83.8729 9.34477 84.7746C8.99918 84.8962 8.70761 84.9674 8.40268 85.0952C8.19118 85.1839 7.94759 85.3211 7.75732 85.4084C7.60263 85.4794 7.46993 85.5229 7.34637 85.5969C7.29571 85.6272 7.2382 85.7372 7.17281 85.7794C7.14435 85.7978 7.08492 85.7676 7.05412 85.7824C7.0351 85.7916 7.01935 85.8874 6.99776 85.9026C6.97091 85.9215 6.90904 85.8912 6.87906 85.9056C6.86034 85.9146 6.84387 86.0105 6.8227 86.0258C6.79634 86.0448 6.73369 86.0145 6.70401 86.0288C6.68547 86.0377 6.66852 86.1337 6.64765 86.149C6.43615 86.3036 6.26351 86.4048 6.12398 86.5778C6.02066 86.7059 5.97355 86.8701 5.89704 86.9992C5.71122 87.3129 5.58172 87.5352 5.56336 87.8984C5.4641 89.8625 7.24236 90.6351 8.97197 91.1976C11.3265 91.9632 14.1263 92.2147 16.9589 92.3624C19.9596 92.5189 22.7269 92.3954 26.1622 92.3089C30.3094 92.2045 34.2091 92.035 38.1385 91.5324C40.0688 91.2854 42.1295 90.8598 43.6917 90.383C43.9935 90.2909 44.2854 90.189 44.5745 90.0639C45.6503 89.5981 46.7744 88.8353 47.0103 87.7459C47.3668 86.0996 46.4505 85.1542 45.5661 84.6349C45.2005 84.4202 44.9069 84.2885 44.4844 84.1277C44.2974 84.0564 44.0815 83.9248 43.8242 83.8473C43.7043 83.8113 43.5461 83.8351 43.4072 83.7985C43.2724 83.7628 43.1665 83.717 43.0482 83.6887C40.7861 83.1484 38.1203 82.9865 35.6637 82.8651C32.2273 82.6951 28.3439 82.8118 24.7378 82.9025C23.489 82.934 22.2247 82.8755 20.9989 82.9966C20.9651 83 20.9307 83.0582 20.941 83.0575Z" fill="white"/>
</mask>
<g mask="url(#mask2_1_1622)">
<path d="M50.8185 76.2482L1.14462 77.4985L1.67792 98.6856L51.3518 97.4353L50.8185 76.2482Z" fill="#FFA97F"/>
</g>
<path d="M20.9935 92.7703C20.4575 92.4261 20.343 92.2885 20.3056 91.7277C20.178 90.532 20.0938 89.3053 20.3777 88.152C20.5215 87.5572 20.9681 86.8404 21.7197 86.9855C23.062 87.4469 22.7862 89.9354 22.9231 91.0451C22.9918 91.7229 23.1779 92.0607 22.6667 92.5804C22.328 92.9971 22.0066 93.1045 21.511 92.7638L20.9935 92.7703Z" fill="#FFD2B6"/>
<path d="M25.9818 92.0835C25.9056 91.3897 25.8093 90.689 25.7926 89.9842C25.8081 89.0587 25.6267 87.8891 26.3952 87.2269C26.6881 87.0101 27.0615 86.9178 27.4161 87.1425C28.3798 87.8619 28.333 90.2708 28.4245 91.36C28.4386 91.6646 28.4423 91.9644 28.4686 92.2745C28.5511 93.1644 26.0362 92.6393 25.9818 92.0835Z" fill="#FFD2B6"/>
<path d="M31.5426 91.5623C31.383 90.3773 31.1758 89.1857 31.2672 87.9982C31.2123 87.1964 31.8541 85.803 32.8538 86.5638C33.4103 87.1377 33.4362 88.0042 33.603 88.7114C33.7582 89.9343 33.9088 91.1908 33.808 92.3993C33.69 93.1233 31.6035 92.1316 31.5426 91.5623Z" fill="#FFD2B6"/>
<path d="M41.1964 83.2606C32.5033 82.3511 5.82793 81.8942 5.69252 88.3112C5.60469 92.4727 16.517 93.6803 40.5094 91.3543" stroke="#004449" stroke-width="1.18733" stroke-linecap="round"/>
</g>
<mask id="mask3_1_1622" style="mask-type:luminance" maskUnits="userSpaceOnUse" x="68" y="-39" width="140" height="153">
<path d="M68.6274 -3.78809L165.443 -38.057L207.003 79.3574L110.188 113.626L68.6274 -3.78809Z" fill="white"/>
</mask>
<g mask="url(#mask3_1_1622)">
<mask id="mask4_1_1622" style="mask-type:luminance" maskUnits="userSpaceOnUse" x="96" y="-9" width="16" height="35">
<path d="M100.368 -6.52367C100.236 -6.44473 100.069 -6.40932 99.904 -6.37088C99.7393 -6.33245 99.5768 -6.2909 99.4528 -6.19961C99.4148 -6.17172 99.3659 -6.03851 99.314 -5.9014C99.262 -5.76429 99.2071 -5.62329 99.1571 -5.57983C98.6006 -5.09415 98.1823 -4.74647 97.8401 -4.37218C97.498 -3.99788 97.2314 -3.59703 96.9777 -3.00551C96.6079 -2.1437 96.3848 -1.21095 96.284 -0.190614C96.1831 0.829726 96.2043 1.93766 96.3233 3.14983C96.4604 4.5462 96.8744 5.77705 97.4302 7.03446C97.986 8.29187 98.6837 9.57607 99.3877 11.0795C99.8878 12.1475 100.49 13.3609 100.893 14.5219C101.295 15.6828 101.498 16.7915 101.198 17.6502C101.117 17.8833 100.992 18.0174 100.857 18.124C100.721 18.2303 100.573 18.3093 100.445 18.432C100.408 18.4667 100.415 18.581 100.419 18.6968C100.423 18.8125 100.425 18.9299 100.378 18.9707C100.053 19.2546 99.0963 19.6312 98.2048 19.988C97.3132 20.3448 96.4862 20.6818 96.4202 20.8867C96.3155 21.211 96.8563 21.8795 97.4376 22.4827C98.019 23.0859 98.641 23.6238 98.6988 23.686C99.3736 24.4129 99.8517 25.148 100.397 25.584C100.942 26.02 101.554 26.1574 102.499 25.6892C103.903 24.9926 105.119 24.0306 106.064 23.0297C107.009 22.0287 107.682 20.9886 108.002 20.1355C108.22 19.5538 108.333 18.9254 108.394 18.2854C108.455 17.6455 108.463 16.9937 108.47 16.3641C108.494 14.114 108.233 12.2482 107.117 9.63149C105.693 6.29295 101.52 0.729413 103.929 -0.830046C104.831 -1.41379 106.06 -0.765542 106.852 -0.57681C107.884 -0.330856 108.596 0.407176 109.627 -0.0136823C110.394 -0.327328 111.341 -2.05931 111.253 -3.42249C111.137 -5.20867 109.915 -6.49631 109.189 -7.07038C107.261 -8.59588 104.671 -8.65675 100.516 -6.83356C100.337 -6.75508 100.396 -6.53976 100.368 -6.52367Z" fill="white"/>
</mask>
<g mask="url(#mask4_1_1622)">
<path d="M155.667 -6.00833L89.9793 17.2427L105.129 60.0428L170.817 36.7918L155.667 -6.00833Z" fill="#FFA97F"/>
</g>
<mask id="mask5_1_1622" style="mask-type:luminance" maskUnits="userSpaceOnUse" x="95" y="-4" width="8" height="25">
<path d="M97.5023 -3.70647C96.9747 -3.69666 96.5969 -3.45993 96.3259 -3.08172C96.0549 -2.70352 95.8907 -2.18361 95.7903 -1.60667C95.6898 -1.02973 95.653 -0.395984 95.6371 0.209727C95.6212 0.815439 95.626 1.39274 95.6084 1.85742C95.5947 2.21974 95.5888 2.56618 95.5958 2.90984C95.6029 3.25351 95.6228 3.59493 95.6609 3.94716C95.699 4.29939 95.7556 4.66287 95.8355 5.0508C95.9153 5.43874 96.019 5.85096 96.1511 6.30128C96.2625 6.68087 96.3797 7.06566 96.5018 7.44276C96.624 7.81985 96.7506 8.18918 96.8816 8.53739C97.0125 8.8856 97.1474 9.21285 97.2853 9.50557C97.6449 10.2689 98.2614 11.4765 98.802 12.7092C99.3426 13.9418 99.8075 15.1992 99.8636 16.062C99.957 17.4988 99.3594 18.0531 98.5865 18.5168C97.8137 18.9804 96.8654 19.3539 96.2582 20.4288C96.6776 20.6247 97.1737 20.5988 97.6806 20.4724C98.1876 20.346 98.705 20.1196 99.1668 19.9144C100.277 19.4208 101.044 18.7953 101.505 18.0618C101.965 17.3283 102.119 16.4867 102.005 15.5618C101.79 13.8305 100.692 11.7647 99.5436 9.59299C98.3955 7.42125 97.1969 5.14325 96.7811 2.98765C96.7357 2.75258 96.7297 2.46987 96.7344 2.19518C96.7392 1.92049 96.755 1.65427 96.7528 1.45235C96.741 0.333572 96.8879 -0.452712 97.0581 -1.21117C97.2282 -1.96962 97.4215 -2.69994 97.5023 -3.70647Z" fill="white"/>
</mask>
<g mask="url(#mask5_1_1622)">
<path d="M155.667 -6.00833L89.9793 17.2427L105.129 60.0428L170.817 36.7918L155.667 -6.00833Z" fill="#004449"/>
</g>
</g>
</svg>
